<?xml version="1.0" encoding="iso-8859-1"?>
<!-- Generator: Adobe Illustrator 19.0.0, SVG Export Plug-In . SVG Version: 6.00 Build 0)  -->
<svg version="1.1" id="Layer_1" xmlns="http://www.w3.org/2000/svg" xmlns:xlink="http://www.w3.org/1999/xlink" x="0px" y="0px"
	 viewBox="0 0 512 512" style="enable-background:new 0 0 512 512;" xml:space="preserve">
<path style="fill:#71DFFE;" d="M416.392,484.833c0,15.004-12.164,27.167-27.167,27.167H122.776
	c-15.004,0-27.167-12.164-27.167-27.167V27.167C95.608,12.164,107.772,0,122.776,0h266.449c15.004,0,27.167,12.164,27.167,27.167
	V484.833z"/>
<path style="fill:#9BE7FE;" d="M122.776,0c-15.004,0-27.167,12.164-27.167,27.167v457.665c0,15.004,12.164,27.167,27.167,27.167H256
	V0H122.776z"/>
<g>
	<rect x="143.297" y="251.308" style="fill:#19CCFE;" width="31.347" height="64.777"/>
	<rect x="143.297" y="62.171" style="fill:#19CCFE;" width="31.347" height="64.777"/>
	<rect x="95.608" y="173.453" style="fill:#19CCFE;" width="320.784" height="31.347"/>
</g>
<g>
</g>
<g>
</g>
<g>
</g>
<g>
</g>
<g>
</g>
<g>
</g>
<g>
</g>
<g>
</g>
<g>
</g>
<g>
</g>
<g>
</g>
<g>
</g>
<g>
</g>
<g>
</g>
<g>
</g>
</svg>
